<svg width="20" height="20" viewBox="0 0 20 20" fill="none" xmlns="http://www.w3.org/2000/svg">
<path d="M10 0C8.02219 0 6.08879 0.58649 4.4443 1.6853C2.79981 2.78412 1.51809 4.3459 0.761209 6.17316C0.00433279 8.00043 -0.1937 10.0111 0.192152 11.9509C0.578004 13.8907 1.53041 15.6725 2.92894 17.0711C4.32746 18.4696 6.10929 19.422 8.0491 19.8078C9.98891 20.1937 11.9996 19.9957 13.8268 19.2388C15.6541 18.4819 17.2159 17.2002 18.3147 15.5557C19.4135 13.9112 20 11.9778 20 10C19.9967 7.34886 18.942 4.80726 17.0674 2.93261C15.1927 1.05797 12.6511 0.00333407 10 0ZM10 2.91054C10.3331 2.90638 10.66 3.00135 10.939 3.1834C11.218 3.36545 11.4366 3.62634 11.567 3.93293C11.6974 4.23951 11.7336 4.57794 11.6712 4.90519C11.6088 5.23244 11.4505 5.53374 11.2164 5.7708C10.9823 6.00785 10.683 6.16995 10.3565 6.23649C10.0301 6.30303 9.69125 6.27101 9.38305 6.1445C9.07485 6.01799 8.81123 5.8027 8.62569 5.52599C8.44014 5.24929 8.34106 4.92366 8.34104 4.59051C8.341 4.14857 8.51511 3.72441 8.82564 3.40996C9.13617 3.0955 9.5581 2.91607 10 2.91054ZM11.68 15.4305C11.617 15.8252 11.4153 16.1844 11.1113 16.4438C10.8072 16.7032 10.4207 16.8457 10.021 16.8457C9.62134 16.8457 9.23478 16.7032 8.93072 16.4438C8.62666 16.1844 8.42503 15.8252 8.36204 15.4305V9.37421C8.36204 9.15635 8.40495 8.94063 8.48832 8.73935C8.57169 8.53808 8.69389 8.35519 8.84794 8.20114C9.00198 8.0471 9.18487 7.9249 9.38614 7.84153C9.58742 7.75815 9.80314 7.71524 10.021 7.71524C10.2389 7.71524 10.4546 7.75815 10.6559 7.84153C10.8571 7.9249 11.04 8.0471 11.1941 8.20114C11.3481 8.35519 11.4703 8.53808 11.5537 8.73935C11.6371 8.94063 11.68 9.15635 11.68 9.37421V15.4305Z" fill="#F98C8C"/>
</svg>
