<svg id="Layer_1" data-name="Layer 1" xmlns="http://www.w3.org/2000/svg" viewBox="0 0 48 48"><path d="M40.47.2H7.53A7.34,7.34,0,0,0,.2,7.53V40.47A7.34,7.34,0,0,0,7.53,47.8H40.47a7.34,7.34,0,0,0,7.33-7.33V7.53A7.34,7.34,0,0,0,40.47.2ZM4.7,7.53A2.83,2.83,0,0,1,7.53,4.7H40.47A2.83,2.83,0,0,1,43.3,7.53V20.11L34.53,30.48a.19.19,0,0,1-.25,0L27.71,25.4a4.68,4.68,0,0,0-6.45.67L6.78,43.19A2.82,2.82,0,0,1,4.7,40.47ZM40.47,43.3H12.58L24.7,29A.2.2,0,0,1,25,29l6.57,5.11A4.67,4.67,0,0,0,38,33.38l5.33-6.3V40.47A2.83,2.83,0,0,1,40.47,43.3Z"/><path d="M13,17.33a4,4,0,1,0-4-4A4,4,0,0,0,13,17.33Z"/></svg>