<svg width="19" height="20" viewBox="0 0 19 20" fill="none" xmlns="http://www.w3.org/2000/svg">
<path d="M17.448 7.3325C17.2807 3.19514 13.8547 0 9.5 0C5.14531 0 1.71929 3.19514 1.55196 7.3325C1.08104 7.60565 0.689899 7.99765 0.417579 8.46938C0.145259 8.94112 0.00127705 9.4761 0 10.0209V12.8476C0.00110356 13.6717 0.328344 14.4618 0.910083 15.045C1.49182 15.6281 2.28066 15.9567 3.10392 15.959H3.18758C3.71163 15.9579 4.21383 15.7487 4.58399 15.3773C4.95416 15.006 5.16204 14.5028 5.16204 13.9782V8.89028C5.159 8.44777 5.00771 8.01908 4.73239 7.67286C4.45708 7.32664 4.07366 7.08292 3.64355 6.98074C3.9782 4.1541 6.37516 2.0938 9.5 2.0938C12.6248 2.0938 15.0051 4.1541 15.3565 6.98074C14.9318 7.08852 14.555 7.33464 14.2854 7.68035C14.0157 8.02605 13.8687 8.4517 13.8672 8.89028V13.9782C13.8654 14.3819 13.9871 14.7765 14.2159 15.1089C14.4448 15.4413 14.7698 15.6955 15.1473 15.8375C14.8879 16.3945 14.3107 16.8677 12.9302 16.943C12.7557 16.6546 12.5103 16.4158 12.2174 16.2494C11.9244 16.083 11.5938 15.9945 11.2569 15.9925H10.2362C9.97605 15.9908 9.71809 16.0405 9.47712 16.1388C9.23616 16.2371 9.01692 16.382 8.83197 16.5652C8.64701 16.7484 8.49997 16.9663 8.39926 17.2065C8.29854 17.4467 8.24614 17.7044 8.24505 17.9648V18.0193C8.24505 18.5446 8.45351 19.0484 8.82458 19.4199C9.19565 19.7913 9.69892 20 10.2237 20H11.2402C11.5828 19.9981 11.9191 19.9072 12.216 19.7362C12.513 19.5651 12.7606 19.3198 12.9344 19.0243C16.2475 18.8735 17.151 16.9305 17.3727 15.5821C17.8651 15.3155 18.2762 14.9206 18.5627 14.4392C18.8492 13.9579 19.0003 13.4079 19 12.8476V10.0209C18.9987 9.4761 18.8547 8.94112 18.5824 8.46938C18.3101 7.99765 17.919 7.60565 17.448 7.3325Z" fill="#F98C8C"/>
</svg>
