<svg width="17" height="22" viewBox="0 0 17 22" fill="none" xmlns="http://www.w3.org/2000/svg">
<path d="M14.2261 7.69603V5.69378C14.2261 4.94606 14.0788 4.20566 13.7926 3.51486C13.5065 2.82406 13.0871 2.19638 12.5584 1.66767C12.0297 1.13895 11.402 0.719552 10.7112 0.433413C10.0204 0.147274 9.27999 0 8.53228 0C7.78456 0 7.04416 0.147274 6.35336 0.433413C5.66256 0.719552 5.03488 1.13895 4.50617 1.66767C3.97745 2.19638 3.55805 2.82406 3.27191 3.51486C2.98577 4.20566 2.8385 4.94606 2.8385 5.69378V7.69603C1.63388 8.83561 0.798926 10.3104 0.441655 11.9297C0.0843853 13.549 0.221238 15.2383 0.834508 16.7789C1.44778 18.3196 2.50925 19.6408 3.8816 20.5716C5.25395 21.5024 6.87404 22 8.53228 22C10.1905 22 11.8106 21.5024 13.183 20.5716C14.5553 19.6408 15.6168 18.3196 16.23 16.7789C16.8433 15.2383 16.9802 13.549 16.6229 11.9297C16.2656 10.3104 15.4307 8.83561 14.2261 7.69603ZM5.13995 5.69378C5.13995 4.79407 5.49735 3.93122 6.13354 3.29504C6.76972 2.65885 7.63257 2.30145 8.53228 2.30145C9.43198 2.30145 10.2948 2.65885 10.931 3.29504C11.5672 3.93122 11.9246 4.79407 11.9246 5.69378V6.15406C10.8596 5.66862 9.70273 5.41742 8.53228 5.41742C7.36182 5.41742 6.20499 5.66862 5.13995 6.15406V5.69378ZM8.53228 19.6359C7.3488 19.6359 6.1919 19.285 5.20788 18.6275C4.22386 17.97 3.4569 17.0354 3.004 15.9421C2.55111 14.8487 2.43261 13.6455 2.66349 12.4848C2.89438 11.3241 3.46428 10.2579 4.30112 9.42102C5.13796 8.58417 6.20417 8.01428 7.3649 7.78339C8.52564 7.55251 9.72877 7.67101 10.8222 8.1239C11.9155 8.5768 12.8501 9.34375 13.5076 10.3278C14.1651 11.3118 14.516 12.4687 14.516 13.6522C14.516 15.2392 13.8856 16.7612 12.7634 17.8833C11.6413 19.0055 10.1193 19.6359 8.53228 19.6359Z" fill="#F98C8C"/>
</svg>
