<svg id="Layer_1" data-name="Layer 1" xmlns="http://www.w3.org/2000/svg" viewBox="0 0 48 48"><path d="M29.91,42.85A6.26,6.26,0,0,1,30,44.08a6,6,0,0,1-1,3.31h5.55a11.28,11.28,0,0,0,.5-3.31,11,11,0,0,0-1.27-5.14Z"/><path d="M18,44.08a6.43,6.43,0,0,1,.15-1.32l-3.89-3.9a11,11,0,0,0-1.31,5.22,11.28,11.28,0,0,0,.5,3.31H19A6,6,0,0,1,18,44.08Z"/><circle cx="24" cy="44.08" r="1.98"/><path d="M31.31,21.62a11.86,11.86,0,1,0-14.6,0A23.65,23.65,0,0,0,.37,44.08c0,.39,0,.73,0,1A2.3,2.3,0,0,0,2.69,47.4H8.77A15.5,15.5,0,0,1,12.17,34a2.09,2.09,0,0,1,.14-.17l.06-.05a15.53,15.53,0,0,1,23.3,0l.07.06a1.74,1.74,0,0,1,.18.22,15.51,15.51,0,0,1,3.31,13.34h6.08a2.3,2.3,0,0,0,2.31-2.28V45A24.09,24.09,0,0,0,31.31,21.62Z"/><path d="M17.12,35.4,20.73,39a6,6,0,0,1,6.61,0L31,35.45a11,11,0,0,0-13.83-.05Z"/></svg>