<svg width="18" height="18" viewBox="0 0 18 18" fill="none" xmlns="http://www.w3.org/2000/svg">
<circle cx="9" cy="9" r="9" fill="#FEE5E5"/>
<path d="M12.6188 4.93983H12.5312V4.5428C12.5312 4.39884 12.4736 4.26078 12.3711 4.15898C12.2685 4.05719 12.1294 4 11.9844 4C11.8393 4 11.7002 4.05719 11.5977 4.15898C11.4951 4.26078 11.4375 4.39884 11.4375 4.5428V4.93983H6.5625V4.5428C6.5625 4.39884 6.50488 4.26078 6.40232 4.15898C6.29977 4.05719 6.16067 4 6.01562 4C5.87058 4 5.73149 4.05719 5.62893 4.15898C5.52637 4.26078 5.46875 4.39884 5.46875 4.5428V4.93983H5.38125C5.01406 4.94228 4.66275 5.08879 4.40398 5.34737C4.14522 5.60596 3.99999 5.95563 4 6.3201V12.6197C4 12.9858 4.14651 13.3369 4.4073 13.5957C4.6681 13.8546 5.02181 14 5.39062 14H12.6188C12.9859 13.9975 13.3372 13.851 13.596 13.5925C13.8548 13.3339 14 12.9842 14 12.6197V6.3201C14 5.95563 13.8548 5.60596 13.596 5.34737C13.3372 5.08879 12.9859 4.94228 12.6188 4.93983ZM5.38125 6.02543H12.6188C12.6591 6.02287 12.6996 6.02861 12.7377 6.04231C12.7757 6.056 12.8105 6.07735 12.8398 6.10502C12.8692 6.13269 12.8925 6.16607 12.9082 6.20308C12.9239 6.24009 12.9318 6.27993 12.9313 6.3201V7.08002H5.08438V6.3201C5.08396 6.28129 5.09135 6.24278 5.10612 6.20685C5.12089 6.17091 5.14274 6.13826 5.1704 6.11081C5.19805 6.08337 5.23094 6.06168 5.26715 6.04702C5.30336 6.03236 5.34215 6.02502 5.38125 6.02543ZM12.6188 12.9144H5.38125C5.30374 12.9106 5.23041 12.8784 5.17553 12.8239C5.12066 12.7694 5.08816 12.6967 5.08438 12.6197V8.16563H12.9156V12.6197C12.9118 12.6967 12.8793 12.7694 12.8245 12.8239C12.7696 12.8784 12.6963 12.9106 12.6188 12.9144Z" fill="#E9413C"/>
</svg>
