<svg id="Layer_1" data-name="Layer 1" xmlns="http://www.w3.org/2000/svg" viewBox="0 0 48 48"><path d="M45.62,21.75H18.22V19.88A2.25,2.25,0,0,0,16,17.63H8.6a2.25,2.25,0,0,0-2.25,2.25v1.87h-4a2.25,2.25,0,1,0,0,4.5h4v1.87A2.25,2.25,0,0,0,8.6,30.37H16a2.25,2.25,0,0,0,2.25-2.25V26.25h27.4a2.25,2.25,0,1,0,0-4.5Zm-31.9,4.12H10.85V22.13h2.87Z"/><path d="M2.38,9.12h27.4V11A2.25,2.25,0,0,0,32,13.24H39.4A2.25,2.25,0,0,0,41.65,11V9.12h4a2.25,2.25,0,1,0,0-4.5h-4V2.76A2.25,2.25,0,0,0,39.4.51H32a2.25,2.25,0,0,0-2.25,2.25V4.62H2.38a2.25,2.25,0,0,0,0,4.5ZM34.28,5h2.87V8.74H34.28Z"/><path d="M45.62,38.88h-4V37a2.25,2.25,0,0,0-2.25-2.25H32A2.25,2.25,0,0,0,29.78,37v1.87H2.38a2.25,2.25,0,0,0,0,4.5h27.4v1.86A2.25,2.25,0,0,0,32,47.49H39.4a2.25,2.25,0,0,0,2.25-2.25V43.38h4a2.25,2.25,0,0,0,0-4.5ZM37.15,43H34.28V39.26h2.87Z"/></svg>