<svg id="Layer_1" data-name="Layer 1" xmlns="http://www.w3.org/2000/svg" viewBox="0 0 48 48"><path d="M40.63,4.82V1.21c0-1.25-4.5-1.25-4.5,0V4.82a8.17,8.17,0,0,0-4.94,2.5,8.17,8.17,0,0,0-4.94-2.5V1.21c0-1.25-4.5-1.25-4.5,0V4.82a8.17,8.17,0,0,0-4.94,2.5,8.17,8.17,0,0,0-4.94-2.5V1.21c0-1.25-4.5-1.25-4.5,0V4.82A8.2,8.2,0,0,0,.19,12.94V45.48a2.25,2.25,0,0,0,2.25,2.25H45.57a2.25,2.25,0,0,0,2.25-2.25V12.94A8.2,8.2,0,0,0,40.63,4.82ZM4.69,12.94A3.69,3.69,0,0,1,8.38,9.25h2.49a3.69,3.69,0,0,1,3.69,3.69V43.23H4.69Zm14.37,0a3.7,3.7,0,0,1,3.69-3.69h2.5a3.7,3.7,0,0,1,3.69,3.69V43.23H19.06ZM43.32,43.23H33.44V12.94a3.69,3.69,0,0,1,3.69-3.69h2.49a3.7,3.7,0,0,1,3.7,3.69Z"/></svg>