<svg id="Layer_1" data-name="Layer 1" xmlns="http://www.w3.org/2000/svg" viewBox="0 0 48 48"><path d="M41.26,47.5H6.74A6.25,6.25,0,0,1,.5,41.26V6.74A6.25,6.25,0,0,1,6.74.5H41.26A6.25,6.25,0,0,1,47.5,6.74V41.26A6.25,6.25,0,0,1,41.26,47.5ZM6.74,5A1.74,1.74,0,0,0,5,6.74V41.26A1.74,1.74,0,0,0,6.74,43H41.26A1.74,1.74,0,0,0,43,41.26V6.74A1.74,1.74,0,0,0,41.26,5Z"/><path d="M35.12,14.44H12.88a2.25,2.25,0,0,1,0-4.5H35.12a2.25,2.25,0,0,1,0,4.5Z"/><path d="M35.12,24.06H12.88a2.25,2.25,0,1,1,0-4.5H35.12a2.25,2.25,0,0,1,0,4.5Z"/><path d="M25.22,33.69H12.88a2.25,2.25,0,0,1,0-4.5H25.22a2.25,2.25,0,0,1,0,4.5Z"/></svg>