<svg width="20" height="20" viewBox="0 0 20 20" fill="none" xmlns="http://www.w3.org/2000/svg">
<path d="M10 0C8.02219 0 6.08879 0.58649 4.4443 1.6853C2.79981 2.78412 1.51809 4.3459 0.761209 6.17316C0.00433279 8.00043 -0.1937 10.0111 0.192152 11.9509C0.578004 13.8907 1.53041 15.6725 2.92894 17.0711C4.32746 18.4696 6.10929 19.422 8.0491 19.8078C9.98891 20.1937 11.9996 19.9957 13.8268 19.2388C15.6541 18.4819 17.2159 17.2002 18.3147 15.5557C19.4135 13.9112 20 11.9778 20 10C19.9967 7.34886 18.942 4.80726 17.0674 2.93261C15.1927 1.05797 12.6511 0.00333407 10 0ZM15.6657 10.1974C15.6606 10.2217 15.6536 10.2456 15.6447 10.2688C15.6447 10.3066 15.6447 10.3444 15.6111 10.3864L15.5733 10.462L15.5229 10.5586L15.4683 10.6342L15.4305 10.6846L12.4654 14.1159C12.3753 14.2206 12.2654 14.3064 12.1421 14.3686C12.0188 14.4307 11.8844 14.4679 11.7467 14.4781C11.609 14.4882 11.4706 14.4711 11.3396 14.4277C11.2085 14.3843 11.0872 14.3154 10.9828 14.2251C10.7724 14.0426 10.6428 13.7841 10.6224 13.5064C10.6019 13.2286 10.6922 12.954 10.8736 12.7425L12.3394 11.0626H5.3801C5.10162 11.0626 4.83456 10.952 4.63765 10.755C4.44074 10.5581 4.33012 10.2911 4.33012 10.0126C4.33012 9.73413 4.44074 9.46706 4.63765 9.27015C4.83456 9.07324 5.10162 8.96262 5.3801 8.96262H12.3394L10.8736 7.28265C10.6915 7.07157 10.6007 6.79679 10.6211 6.51875C10.6416 6.24072 10.7717 5.9822 10.9828 5.80008C11.1939 5.61796 11.4686 5.52715 11.7467 5.54763C12.0247 5.56811 12.2832 5.6982 12.4654 5.90928L15.4305 9.34061L15.4683 9.39101C15.4865 9.41522 15.5034 9.44046 15.5187 9.46661C15.5394 9.49735 15.5576 9.52965 15.5733 9.56321L15.6111 9.63881C15.6111 9.6766 15.6363 9.7186 15.6447 9.7564C15.6536 9.77959 15.6606 9.80347 15.6657 9.8278C15.6877 9.95001 15.6877 10.0752 15.6657 10.1974Z" fill="#F98C8C"/>
</svg>
