<svg width="18" height="21" viewBox="0 0 18 21" fill="none" xmlns="http://www.w3.org/2000/svg">
<path d="M15.8774 1.37313L8.97805 0.0126874C8.88871 -0.00422913 8.79699 -0.00422913 8.70765 0.0126874L1.80829 1.37313C1.29896 1.47301 0.840157 1.74673 0.510317 2.14747C0.180477 2.54821 9.03897e-05 3.05108 0 3.57011V12.0623C0 17.0013 8.26403 19.9038 8.61893 20.0221C8.76393 20.0727 8.92177 20.0727 9.06678 20.0221C9.42167 19.9038 17.6857 17.0013 17.6857 12.0623V3.57011C17.6856 3.05108 17.5052 2.54821 17.1754 2.14747C16.8456 1.74673 16.3867 1.47301 15.8774 1.37313ZM13.7649 13.3213C13.765 13.5397 13.7217 13.7559 13.6376 13.9574C13.5535 14.159 13.4303 14.3418 13.2751 14.4955C13.1199 14.6491 12.9358 14.7704 12.7334 14.8524C12.5311 14.9344 12.3144 14.9755 12.0961 14.9733H5.58963C5.1515 14.9733 4.73132 14.7992 4.42152 14.4894C4.11171 14.1796 3.93767 13.7595 3.93767 13.3213V8.53022C3.93767 8.0917 4.11158 7.67108 4.42126 7.36061C4.73094 7.05013 5.15111 6.87515 5.58963 6.87403H5.93185V6.08396C5.93185 5.70168 6.00715 5.32315 6.15344 4.96997C6.29973 4.61679 6.51415 4.29589 6.78446 4.02557C7.05478 3.75526 7.37568 3.54084 7.72886 3.39455C8.08204 3.24826 8.46058 3.17296 8.84285 3.17296C9.22513 3.17296 9.60367 3.24826 9.95685 3.39455C10.31 3.54084 10.6309 3.75526 10.9012 4.02557C11.1716 4.29589 11.386 4.61679 11.5323 4.96997C11.6786 5.32315 11.7539 5.70168 11.7539 6.08396V6.87403H12.0961C12.5346 6.87515 12.9548 7.05013 13.2644 7.36061C13.5741 7.67108 13.748 8.0917 13.748 8.53022L13.7649 13.3213Z" fill="#F98C8C"/>
</svg>
