<svg id="Layer_1" data-name="Layer 1" xmlns="http://www.w3.org/2000/svg" viewBox="0 0 48 48"><path d="M2.75,16.19A2.25,2.25,0,0,0,5,13.94V6.77A1.77,1.77,0,0,1,6.77,5h7.14a2.25,2.25,0,0,0,0-4.5H6.77A6.27,6.27,0,0,0,.5,6.77v7.17A2.25,2.25,0,0,0,2.75,16.19Z"/><path d="M41.23.52H34.06a2.25,2.25,0,0,0,0,4.5h7.17A1.77,1.77,0,0,1,43,6.79v7.13a2.25,2.25,0,1,0,4.5,0V6.79A6.27,6.27,0,0,0,41.23.52Z"/><path d="M45.25,31.81A2.25,2.25,0,0,0,43,34.06v7.17A1.78,1.78,0,0,1,41.23,43H34.09a2.25,2.25,0,0,0,0,4.5h7.14a6.27,6.27,0,0,0,6.27-6.27V34.06A2.25,2.25,0,0,0,45.25,31.81Z"/><path d="M13.94,43H6.77A1.76,1.76,0,0,1,5,41.22V34.08a2.25,2.25,0,0,0-4.5,0v7.14a6.27,6.27,0,0,0,6.27,6.26h7.17a2.25,2.25,0,0,0,0-4.5Z"/><path d="M35.29,30.58V26.25h9.33a2.25,2.25,0,1,0,0-4.5H35.29V17.42a4.71,4.71,0,0,0-4.71-4.71H17.42a4.71,4.71,0,0,0-4.71,4.71v4.33H3.4a2.25,2.25,0,1,0,0,4.5h9.31v4.33a4.71,4.71,0,0,0,4.71,4.71H30.58A4.71,4.71,0,0,0,35.29,30.58ZM17.21,17.42a.21.21,0,0,1,.21-.21H30.58a.21.21,0,0,1,.21.21v4.33H17.21ZM30.58,30.79H17.42a.21.21,0,0,1-.21-.21V26.25H30.79v4.33A.21.21,0,0,1,30.58,30.79Z"/></svg>