<svg id="Layer_1" data-name="Layer 1" xmlns="http://www.w3.org/2000/svg" viewBox="0 0 48 48"><path d="M8,40.55a15.14,15.14,0,0,1,12-14.8V23.41H18.6a2.24,2.24,0,0,1-2.17,1.69H13.06a2.25,2.25,0,0,1-2.25-2.21c-3.25-1.14-5.18-4.14-5.18-8.39V.5H4A3.5,3.5,0,0,0,.5,4V44A3.5,3.5,0,0,0,4,47.5H8Z"/><path d="M44,.5H10.13v14a4.61,4.61,0,0,0,1.17,3.59,2.23,2.23,0,0,1,1.76-.86h3.37a2.23,2.23,0,0,1,2.17,1.68H20V15H18.53a2.25,2.25,0,0,1,0-4.5H29.47a2.25,2.25,0,0,1,0,4.5H28v3.91h1.88a2.58,2.58,0,0,1,2-.9,2.91,2.91,0,0,1,2.76,3.15,2.91,2.91,0,0,1-2.76,3.15,2.58,2.58,0,0,1-2-.9H28v2.34a15.14,15.14,0,0,1,12,14.8v7h4A3.5,3.5,0,0,0,47.5,44V4A3.5,3.5,0,0,0,44,.5Z"/></svg>