<svg id="Layer_1" data-name="Layer 1" xmlns="http://www.w3.org/2000/svg" viewBox="0 0 48 48"><path d="M31.8,18.45a2.24,2.24,0,0,1-2.25-2.25V.5H6.74A6.25,6.25,0,0,0,.5,6.74V41.26A6.25,6.25,0,0,0,6.74,47.5H41.26a6.25,6.25,0,0,0,6.24-6.24V18.45Zm-20-4.5H22.71a2.25,2.25,0,0,1,0,4.5H11.83a2.25,2.25,0,0,1,0-4.5ZM36.16,38H11.83a2.25,2.25,0,1,1,0-4.5H36.16a2.25,2.25,0,0,1,0,4.5Zm0-9.75H11.83a2.25,2.25,0,0,1,0-4.5H36.16a2.25,2.25,0,0,1,0,4.5Z"/><polygon points="46.18 13.96 34.05 1.82 34.05 13.96 46.18 13.96"/></svg>