<svg id="Layer_1" data-name="Layer 1" xmlns="http://www.w3.org/2000/svg" viewBox="0 0 48 48"><path d="M19.13,40h.17a2.24,2.24,0,0,0,2.08-2.4L20,18.36a2.25,2.25,0,1,0-4.49.32l1.39,19.19A2.26,2.26,0,0,0,19.13,40Z"/><path d="M28.7,40h.17a2.26,2.26,0,0,0,2.24-2.09L32.5,18.68A2.25,2.25,0,1,0,28,18.36L26.62,37.55A2.24,2.24,0,0,0,28.7,40Z"/><path d="M44.12,7.92H3.88a2.25,2.25,0,0,0,0,4.5h.93L7.52,42.49a6.08,6.08,0,0,0,6.05,5.41H34.43a6.1,6.1,0,0,0,6.06-5.46l2.7-30h.93a2.25,2.25,0,0,0,0-4.5ZM36,42a1.59,1.59,0,0,1-1.58,1.41H13.57A1.59,1.59,0,0,1,12,42L9.33,12.42H38.67Z"/><path d="M14.56,6.37a2.25,2.25,0,0,0,3.14-.5c.09-.11.18-.25.27-.38a8.63,8.63,0,0,1,.67-.89H29.21a8.29,8.29,0,0,1,.76,1l.17.25a2.25,2.25,0,0,0,3.73-2.51l-.14-.21C33,2,31.71.1,29.58.1H18.24c-2,0-3.24,1.77-4,2.82l-.21.3A2.25,2.25,0,0,0,14.56,6.37Z"/></svg>