<svg width="18" height="18" viewBox="0 0 18 18" fill="none" xmlns="http://www.w3.org/2000/svg">
<circle cx="9" cy="9" r="9" fill="#FEE5E5"/>
<path d="M12.5282 5.00424V4.26521C12.5282 3.9116 11.2958 3.9116 11.2958 4.26521V5.00424C10.9779 5.10076 10.688 5.27303 10.4507 5.50636C10.2153 5.27239 9.92634 5.09997 9.60915 5.00424V4.26521C9.60915 3.9116 8.37676 3.9116 8.37676 4.26521V5.00424C8.05957 5.09997 7.77061 5.27239 7.53521 5.50636C7.29794 5.27303 7.00802 5.10076 6.69014 5.00424V4.26521C6.69014 3.9116 5.45775 3.9116 5.45775 4.26521V5.00424C5.03638 5.13182 4.6671 5.39224 4.40456 5.74696C4.14202 6.10168 4.00017 6.53186 4 6.97383V13.3812C4 13.5453 4.06492 13.7027 4.18048 13.8188C4.29604 13.9348 4.45277 14 4.6162 14H13.3838C13.5472 14 13.704 13.9348 13.8195 13.8188C13.9351 13.7027 14 13.5453 14 13.3812V6.97383C13.9989 6.53006 13.855 6.09852 13.5898 5.74357C13.3246 5.38863 12.9522 5.12929 12.5282 5.00424ZM5.24648 6.97383C5.24602 6.86627 5.26671 6.75967 5.30738 6.66016C5.34805 6.56065 5.40789 6.47018 5.48346 6.39396C5.55904 6.31773 5.64886 6.25725 5.74778 6.21598C5.84669 6.17471 5.95275 6.15346 6.05986 6.15347H6.1162C6.33285 6.15347 6.54064 6.2399 6.69383 6.39375C6.84703 6.54759 6.9331 6.75626 6.9331 6.97383V12.7624H5.24648V6.97383ZM8.16549 6.97383C8.16503 6.86627 8.18573 6.75967 8.22639 6.66016C8.26706 6.56065 8.3269 6.47018 8.40248 6.39396C8.47805 6.31773 8.56788 6.25725 8.66679 6.21598C8.7657 6.17471 8.87176 6.15346 8.97887 6.15347H9.03521C9.14232 6.15346 9.24838 6.17471 9.34729 6.21598C9.44621 6.25725 9.53603 6.31773 9.61161 6.39396C9.68718 6.47018 9.74702 6.56065 9.78769 6.66016C9.82836 6.75967 9.84905 6.86627 9.84859 6.97383V12.7624H8.16549V6.97383ZM12.7676 12.7624H11.081V6.97383C11.081 6.75626 11.1671 6.54759 11.3203 6.39375C11.4734 6.2399 11.6812 6.15347 11.8979 6.15347H11.9542C12.0613 6.15346 12.1674 6.17471 12.2663 6.21598C12.3652 6.25725 12.455 6.31773 12.5306 6.39396C12.6062 6.47018 12.666 6.56065 12.7067 6.66016C12.7474 6.75967 12.7681 6.86627 12.7676 6.97383V12.7624Z" fill="#E9413C"/>
</svg>
