<svg id="Layer_1" data-name="Layer 1" xmlns="http://www.w3.org/2000/svg" viewBox="0 0 48 48"><path d="M30.7,17.85l-5.2-4.67-.12-.1L25.21,13l-.2-.11-.18-.09-.24-.07-.16,0a2.85,2.85,0,0,0-.41,0h0a2.85,2.85,0,0,0-.41,0l-.16,0-.24.07-.18.09-.2.11-.17.12-.12.1-5.2,4.67a2.25,2.25,0,0,0,3,3.35l1.45-1.3v8.7a2.25,2.25,0,0,0,4.5,0V19.9l1.45,1.3a2.25,2.25,0,0,0,3-3.35Z"/><path d="M47.77,33.68h0a2.12,2.12,0,0,0,0-.44V6.45A6.34,6.34,0,0,0,41.49.12h-35A6.34,6.34,0,0,0,.18,6.45v35.1a6.34,6.34,0,0,0,6.33,6.33H33.19a2.29,2.29,0,0,0,1.6-.66L47.16,34.83a2.3,2.3,0,0,0,.35-.47s.05-.09.07-.13A2.76,2.76,0,0,0,47.77,33.68Zm-12.33,6.5V35.49h4.69ZM4.68,41.55V6.45A1.83,1.83,0,0,1,6.51,4.62h35a1.83,1.83,0,0,1,1.83,1.83V31H33.19a2.25,2.25,0,0,0-2.25,2.25V43.38H6.51A1.83,1.83,0,0,1,4.68,41.55Z"/></svg>