<svg width="20" height="20" viewBox="0 0 20 20" fill="none" xmlns="http://www.w3.org/2000/svg">
<path fill-rule="evenodd" clip-rule="evenodd" d="M17.0867 2.89563C15.377 1.19841 13.1065 0.176894 10.6972 0.0209203C8.28793 -0.135053 5.90369 0.585126 3.9876 2.04762C2.07151 3.51011 0.753893 5.61544 0.279624 7.97235C-0.194645 10.3293 0.206689 12.7775 1.40904 14.8619L0 20L5.27966 18.6183C6.73881 19.4116 8.37477 19.8271 10.0373 19.8268C12.0073 19.8263 13.9331 19.2445 15.5711 18.1548C17.2092 17.0651 18.486 15.5165 19.2404 13.7047C19.9948 11.8928 20.1929 9.89896 19.8095 7.97508C19.4262 6.0512 18.4787 4.2836 17.0867 2.89563ZM10.0415 18.1535C8.55857 18.154 7.10282 17.757 5.82714 17.0042L5.52581 16.8267L2.38943 17.6422L3.23825 14.6042L3.04302 14.2915C2.06795 12.7435 1.63739 10.9167 1.81905 9.09844C2.00072 7.28019 2.7843 5.57364 4.04656 4.24719C5.30882 2.92074 6.97815 2.04965 8.79198 1.77093C10.6058 1.4922 12.4613 1.82166 14.0665 2.70747C15.6717 3.59329 16.9357 4.98521 17.6595 6.66431C18.3834 8.34342 18.5261 10.2144 18.0652 11.9831C17.6043 13.7518 16.566 15.3178 15.1135 16.4347C13.661 17.5517 11.8768 18.1563 10.0415 18.1535ZM14.5827 11.9802C14.3323 11.8577 13.11 11.2577 12.8851 11.1732C12.6601 11.0887 12.4904 11.0506 12.3249 11.2999C12.1593 11.5492 11.6967 12.107 11.5312 12.2718C11.3657 12.4366 11.2426 12.4577 10.9922 12.3309C10.2592 12.0398 9.58273 11.6237 8.99324 11.1013C8.44875 10.6013 7.9824 10.0231 7.60966 9.38583C7.46536 9.13653 7.60966 9.01822 7.71577 8.87878C7.94521 8.61345 8.15378 8.33092 8.33965 8.0337C8.37136 7.96698 8.38601 7.8935 8.38231 7.81978C8.3786 7.74606 8.35666 7.6744 8.31843 7.61116C8.25477 7.48863 7.75821 6.26749 7.55025 5.77312C7.34229 5.27875 7.12584 5.35058 6.99003 5.35058C6.85421 5.35058 6.68021 5.35058 6.51469 5.35058C6.38898 5.35404 6.26533 5.3832 6.15143 5.43627C6.03753 5.48933 5.93581 5.56516 5.85261 5.65903C5.57047 5.92479 5.34702 6.24614 5.19649 6.6026C5.04597 6.95907 4.97167 7.34284 4.97832 7.72947C4.97832 8.94639 5.87383 10.1253 5.99691 10.2901C6.11999 10.4548 7.74972 12.9563 10.241 14.0295C10.7033 14.2304 11.1766 14.4053 11.6585 14.5535C12.1658 14.7072 12.7021 14.7405 13.2246 14.6507C13.7042 14.5788 14.6973 14.0507 14.9222 13.4718C15.0861 13.1031 15.1363 12.6943 15.0665 12.2971C14.9944 12.1661 14.8289 12.107 14.5827 11.9802Z" fill="#464646"/>
</svg>
