<svg id="Layer_1" data-name="Layer 1" xmlns="http://www.w3.org/2000/svg" viewBox="0 0 48 48"><path d="M41.23,4.75h-.77V2.5a2.25,2.25,0,0,0-4.5,0V4.75H12V2.5a2.25,2.25,0,0,0-4.5,0V4.75H6.77A6.27,6.27,0,0,0,.5,11V41.23A6.27,6.27,0,0,0,6.77,47.5H29.93a2.29,2.29,0,0,0,1.6-.66L46.84,31.51a2.36,2.36,0,0,0,.35-.48.54.54,0,0,0,.07-.13,1.74,1.74,0,0,0,.19-.54h0a2.2,2.2,0,0,0,0-.44V11A6.27,6.27,0,0,0,41.23,4.75Zm-9,35.05V32.17h7.64ZM6.77,9.25H41.23A1.77,1.77,0,0,1,43,11v4H5V11A1.77,1.77,0,0,1,6.77,9.25ZM5,41.23V19.52H43v8.15H29.93a2.25,2.25,0,0,0-2.25,2.25V43H6.77A1.78,1.78,0,0,1,5,41.23Z"/></svg>