<svg id="Layer_1" data-name="Layer 1" xmlns="http://www.w3.org/2000/svg" viewBox="0 0 48 48"><path d="M47.47,22.25a43,43,0,0,0-10.09-8.79l1-1A2.25,2.25,0,1,0,35.2,9.27l-2,2a23.25,23.25,0,0,0-9.2-2c-12.92,0-23,12.47-23.47,13a2.24,2.24,0,0,0,0,2.81,43.21,43.21,0,0,0,10.1,8.79l-1,1a2.25,2.25,0,0,0,0,3.18,2.22,2.22,0,0,0,1.59.66A2.25,2.25,0,0,0,12.8,38l2-2a23.25,23.25,0,0,0,9.2,2c12.92,0,23-12.47,23.47-13A2.24,2.24,0,0,0,47.47,22.25ZM5.3,23.65c2.86-3,10.28-9.9,18.7-9.9a17.68,17.68,0,0,1,5.71,1l-1.35,1.36A8.62,8.62,0,0,0,24,14.94,8.7,8.7,0,0,0,16.46,28l-2.55,2.55A39.16,39.16,0,0,1,5.3,23.65Zm22.92,0A4.23,4.23,0,0,1,24,27.87a4.08,4.08,0,0,1-.93-.11l5-5A4.72,4.72,0,0,1,28.22,23.65Zm-8.44,0A4.22,4.22,0,0,1,24,19.44a4.08,4.08,0,0,1,.93.11l-5,5A4.73,4.73,0,0,1,19.78,23.65ZM24,33.56a17.68,17.68,0,0,1-5.71-1l1.35-1.36A8.62,8.62,0,0,0,24,32.37,8.7,8.7,0,0,0,31.54,19.3l2.55-2.55a39.46,39.46,0,0,1,8.61,6.9C39.84,26.69,32.42,33.56,24,33.56Z"/></svg>