<svg id="Layer_1" data-name="Layer 1" xmlns="http://www.w3.org/2000/svg" viewBox="0 0 48 48"><path d="M27.62,29l-1.37,1.24v-8.5a2.25,2.25,0,0,0-4.5,0v8.49L20.38,29a2.25,2.25,0,1,0-3,3.35L22.5,37l.12.09.17.13.2.11.18.08.24.08.16,0a2.33,2.33,0,0,0,.86,0l.16,0,.24-.08.18-.08.2-.11.16-.13L25.5,37l5.13-4.61a2.25,2.25,0,0,0-3-3.35Z"/><path d="M41.23.5H14.94a2.25,2.25,0,0,0-1.59.66L1.16,13.37a2.3,2.3,0,0,0-.35.47L.74,14a2.11,2.11,0,0,0-.19.55h0A2.12,2.12,0,0,0,.5,15v26.4a6.27,6.27,0,0,0,6.27,6.26H41.23a6.27,6.27,0,0,0,6.27-6.26V6.77A6.27,6.27,0,0,0,41.23.5ZM12.69,8.2v4.51H8.18ZM43,41.36a1.77,1.77,0,0,1-1.77,1.76H6.77A1.77,1.77,0,0,1,5,41.36V17.21h9.94A2.25,2.25,0,0,0,17.19,15V5h24A1.77,1.77,0,0,1,43,6.77Z"/></svg>