<svg id="Layer_1" data-name="Layer 1" xmlns="http://www.w3.org/2000/svg" viewBox="0 0 48 48"><path d="M41.23,47.5H6.77A6.27,6.27,0,0,1,.5,41.23V6.77A6.27,6.27,0,0,1,6.77.5H41.23A6.27,6.27,0,0,1,47.5,6.77V41.23A6.27,6.27,0,0,1,41.23,47.5ZM6.77,5A1.77,1.77,0,0,0,5,6.77V41.23A1.77,1.77,0,0,0,6.77,43H41.23A1.78,1.78,0,0,0,43,41.23V6.77A1.77,1.77,0,0,0,41.23,5Z"/><path d="M19,34.56a2.25,2.25,0,0,1-1.59-.66l-6.53-6.53A2.25,2.25,0,0,1,14,24.19L19,29.13l15-15a2.25,2.25,0,0,1,3.18,3.18L20.54,33.9A2.23,2.23,0,0,1,19,34.56Z"/></svg>