<svg id="Layer_1" data-name="Layer 1" xmlns="http://www.w3.org/2000/svg" viewBox="0 0 99.74 99.74"><defs><style>.cls-1{fill:#fee5e5;}.cls-2{fill:#da251c;}</style></defs><path class="cls-1" d="M49.87.82c5.09,0,9.38,4.58,14,6.07,4.75,1.54,10.91.42,14.87,3.3s4.81,9.13,7.72,13.12S95,30,96.54,34.71C98,39.3,95.06,44.79,95.06,49.87S98,60.45,96.54,65c-1.55,4.76-7.23,7.44-10.11,11.4S82.7,86.65,78.71,89.56s-10.12,1.75-14.87,3.3c-4.59,1.49-8.88,6.06-14,6.06s-9.38-4.57-14-6.06C31.15,91.31,25,92.44,21,89.56s-4.82-9.13-7.73-13.13S4.75,69.79,3.21,65C1.72,60.45,4.69,55,4.69,49.87s-3-10.57-1.48-15.16c1.54-4.75,7.22-7.44,10.1-11.4S17,13.09,21,10.19s10.11-1.76,14.87-3.3C40.49,5.4,44.79.82,49.87.82Z"/><path class="cls-2" d="M45,69.76a4,4,0,0,1-2.4-.8L26.53,56.85a4,4,0,1,1,4.8-6.4l13,9.8L67.71,31.47a4,4,0,0,1,6.21,5L48.15,68.28A4,4,0,0,1,45,69.76Z"/></svg>